<?xml version="1.0" encoding="UTF-8"?><svg xmlns="http://www.w3.org/2000/svg" xmlns:xlink="http://www.w3.org/1999/xlink" fill-opacity="1" color-rendering="auto" color-interpolation="auto" text-rendering="auto" stroke="black" stroke-linecap="square" width="156" stroke-miterlimit="10" shape-rendering="auto" stroke-opacity="1" fill="black" stroke-dasharray="none" font-weight="normal" stroke-width="1" height="152" font-family="'Dialog'" font-style="normal" stroke-linejoin="miter" font-size="12px" stroke-dashoffset="0" image-rendering="auto">
  <!--Generated by ySVG 2.5-->
  <defs id="genericDefs"/>
  <g>
    <defs id="defs1">
      <clipPath clipPathUnits="userSpaceOnUse" id="clipPath1">
        <path d="M0 0 L156 0 L156 152 L0 152 L0 0 Z"/>
      </clipPath>
      <clipPath clipPathUnits="userSpaceOnUse" id="clipPath2">
        <path d="M-2508 -483 L-2352 -483 L-2352 -331 L-2508 -331 L-2508 -483 Z"/>
      </clipPath>
    </defs>
    <g text-rendering="geometricPrecision" shape-rendering="geometricPrecision" transform="translate(2508,483)">
      <rect x="-2508" width="156" height="152" y="-483" clip-path="url(#clipPath2)" stroke="none"/>
    </g>
    <g fill="rgb(102,0,0)" text-rendering="geometricPrecision" shape-rendering="geometricPrecision" transform="matrix(1,0,0,1,2508,483)" stroke="rgb(102,0,0)">
      <rect x="-2492.9141" y="-468" clip-path="url(#clipPath2)" width="125.8281" rx="4" ry="4" height="36" stroke="none"/>
    </g>
    <g stroke-linecap="butt" transform="matrix(1,0,0,1,2508,483)" fill="rgb(204,204,204)" text-rendering="geometricPrecision" shape-rendering="geometricPrecision" stroke="rgb(204,204,204)" stroke-width="2" stroke-miterlimit="1.45">
      <rect x="-2492.9141" y="-468" clip-path="url(#clipPath2)" fill="none" width="125.8281" rx="4" ry="4" height="36"/>
      <text x="-2480.9141" font-size="16px" y="-443.6484" clip-path="url(#clipPath2)" font-family="'Tahoma'" stroke="none" stroke-width="1" xml:space="preserve">MainController</text>
    </g>
    <g fill="rgb(102,0,0)" text-rendering="geometricPrecision" shape-rendering="geometricPrecision" transform="matrix(1,0,0,1,2508,483)" stroke="rgb(102,0,0)">
      <rect x="-2492.9141" y="-382" clip-path="url(#clipPath2)" width="92.5234" rx="4" ry="4" height="36" stroke="none"/>
    </g>
    <g stroke-linecap="butt" transform="matrix(1,0,0,1,2508,483)" fill="rgb(204,204,204)" text-rendering="geometricPrecision" shape-rendering="geometricPrecision" stroke="rgb(204,204,204)" stroke-width="2" stroke-miterlimit="1.45">
      <rect x="-2492.9141" y="-382" clip-path="url(#clipPath2)" fill="none" width="92.5234" rx="4" ry="4" height="36"/>
      <text x="-2480.9141" font-size="16px" y="-357.6484" clip-path="url(#clipPath2)" font-family="'Tahoma'" stroke="none" stroke-width="1" xml:space="preserve">Controller</text>
    </g>
  </g>
</svg>
